<?xml version="1.0" encoding="utf-8"?>
<!-- Generator: Adobe Illustrator 25.2.0, SVG Export Plug-In . SVG Version: 6.00 Build 0)  -->
<svg version="1.1" baseProfile="tiny" id="Layer_1" xmlns="http://www.w3.org/2000/svg" xmlns:xlink="http://www.w3.org/1999/xlink"
	 x="0px" y="0px" viewBox="0 0 50 480" overflow="visible" xml:space="preserve">
<circle fill="#FFFFFF" stroke="#ced02d" stroke-width="2" stroke-miterlimit="10" cx="25" cy="37.77" r="20"/>
<circle fill="#FFFFFF" stroke="#ced02d" stroke-width="2" stroke-miterlimit="10" cx="25" cy="95.54" r="20"/>
<circle fill="#FFFFFF" stroke="#ced02d" stroke-width="2" stroke-miterlimit="10" cx="25" cy="153.31" r="20"/>
<circle fill="#FFFFFF" stroke="#ced02d" stroke-width="2" stroke-miterlimit="10" cx="25" cy="211.08" r="20"/>
<circle fill="#FFFFFF" stroke="#ced02d" stroke-width="2" stroke-miterlimit="10" cx="25" cy="268.85" r="20"/>
<circle fill="#FFFFFF" stroke="#ced02d" stroke-width="2" stroke-miterlimit="10" cx="25" cy="326.62" r="20"/>
<circle fill="#FFFFFF" stroke="#ced02d" stroke-width="2" stroke-miterlimit="10" cx="25" cy="384.39" r="20"/>
<circle fill="#FFFFFF" stroke="#ced02d" stroke-width="2" stroke-miterlimit="10" cx="25" cy="442.16" r="20"/>
<g>
	<path id="path3" fill="#151414" d="M32.87,37.56c-0.37,0.96-0.09,1.71,0.42,2.53c0.63,1.69,0.54,3.67,1.81,5.11
		c0.55,0.86-0.22,1.87,0.21,2.76c0.28,0.91-0.02,1.64-1.28,1.54c-0.93,0.03-2.02,0.06-2.72-0.13c-0.92,0.22-0.64-0.61,0.4-0.79
		c0.82-0.13,2.49,0.23,2.31-1.08c-0.12-1.56-0.69-3.21-1.96-4.22c-0.69-0.67-1.42-1.28-2.01-2.05c-0.62,1.5-0.83,3.14-0.53,4.73
		c-0.32,0.83-0.66,1.66-0.84,2.49c0.27,1-0.44,1.17-1.47,1.07c-0.95,0.09-1.93-0.1-2.7-0.1c-0.76,0.06-0.15-0.8,0.71-0.8
		c0.99-0.08,2.41-0.01,2.59-1.29c0.51-1.93,0.26-3.95-0.56-5.76c-0.56-1.25-0.79-2.62-0.42-3.96c-2.86,0.09-5.72,0.27-8.58-0.01
		c0.33,1.06,0.34,2.24,0.72,3.25c0.92,1.19-0.43,0.21,0.23,1.72c-0.45-0.58-0.51,0.13-0.62,1.23c-0.4,1.56-0.21-2.22-0.47-0.86
		c-0.17,1.07-0.76,1.74-0.5,0.26c0,0.04-0.76,2.54-0.63,0.89c0.45-1.68-0.68,0.49-0.79,0.32c-0.08-0.51,0.8-2.56,0.1-1.37
		c-0.84,1.19-0.59,0.05-0.29-0.69c0.54-1.09,0.11-2.42,0.25-3.61c-1.15-1.01-2.45-1.9-3.55-2.94c-0.71-1.01-0.59-2.76-2.13-2.95
		c-2.44-0.5-4.84-1.42-6.75-3.06c-1.64-1.23-3.87-1.71-5.79-0.9c-0.7-0.06-1.74,1.27-2.02,0.67c0.43-0.99,1.73-1.08,2.45-1.76
		c0-0.82-1.27-0.17-1.84-0.32c-1.04,0.53-1.56-0.2-0.62-0.94c0.77-0.46,1.77-0.46,2.65-0.54c2.21,0,4.53,0.26,6.32,1.7
		c2.56,2.04,6.03,2.4,9.16,1.75c4.23-0.82,8.54-0.93,12.83-0.67c3.68,0.1,7.32,0.67,10.99,0.87c5,0.51,9.98,1.45,15.02,1.24
		c3.69,0.12,7.43-0.27,11.08,0.39c1.43,0.36,3.18,0.78,4,2.08c-2.59-1.32-5.68-1.63-8.53-1.04c-3.81,0.48-7.47,1.87-11.34,2.01
		c-4.01,0.38-8.08,0.29-12.03,1.13c-0.66,0.3-1.48,0.79-1.96,1.44C33.91,37.3,33.35,37.49,32.87,37.56L32.87,37.56z"/>
	<path id="path4" fill="#151414" d="M-4.3,27.58c0.01,0.03,0.02,0.17,0.06,0.11c0.01-0.04,0-0.15,0.04-0.07
		c0.02,0.06,0.11,0.1,0.09,0c0-0.04,0-0.09,0.01-0.02c0,0.07,0.08,0.11,0.06,0.02c0-0.04,0-0.08,0.01-0.02
		c0,0.05,0.05,0.12,0.08,0.05c-0.01-0.04-0.02-0.15,0.01-0.06c0,0.04,0.06,0.12,0.08,0.05c-0.01-0.04-0.04-0.16,0-0.07
		c0.02,0.05,0.06,0.13,0.11,0.06c-0.02-0.05-0.06-0.17-0.01-0.07c0.02,0.03,0.06,0.12,0.06,0.04c0-0.03,0.01-0.07,0.01-0.1
		c0.02,0.03,0.06,0.13,0.07,0.12c0-0.04,0-0.08,0-0.13c0.02,0.03,0.04,0.14,0.05,0.12c0.01-0.04,0.01-0.08,0.02-0.12
		c0.01,0.05,0.08,0.19,0.08,0.06c-0.01-0.04-0.03-0.13,0.01-0.05c0.02,0.05,0.11,0.09,0.08,0.01c-0.02-0.11,0.03,0.12,0.07,0.04
		c-0.01-0.03-0.04-0.14,0-0.06c0.01,0.04,0.07,0.11,0.08,0.05c-0.01-0.04-0.06-0.15-0.01-0.07c0.02,0.04,0.11,0.14,0.1,0.03
		c0-0.04,0-0.1,0.02-0.03c0,0.05,0.06,0.09,0.07,0.03c-0.01-0.04-0.02-0.12,0.01-0.04c0.04,0.12,0.03-0.14,0.06-0.02
		c0,0.05,0.05,0.1,0.05,0.02c-0.02-0.08,0.05,0.01,0.06-0.03c0,0.05,0.08,0.11,0.07,0.02c-0.02-0.11,0.05,0.16,0.06,0.04
		c0-0.04,0-0.1,0.01-0.02c0,0.08,0.06,0.05,0.04-0.01c0-0.12,0.04,0.16,0.05,0.02c0-0.03,0-0.1,0.02-0.03
		c0.01,0.04,0.03,0.09,0.04,0.02c0.01-0.05,0.02-0.04,0.04,0c0.02-0.03,0.04-0.06,0.04,0c0,0.05,0.07,0.09,0.05,0.01
		c-0.01-0.08,0-0.03,0.02,0.01c0.02,0.08,0.05-0.01,0.04-0.06c-0.01,0.01,0.02,0.13,0.04,0.05c0-0.04,0.01-0.07,0.02-0.02
		c0.01,0.06,0.05,0.04,0.05-0.01c0.01-0.1,0.04,0.14,0.05,0.01c0.01-0.11,0.03,0.11,0.04,0c0.01-0.08,0.03,0.07,0.04-0.02
		c0.01-0.08,0.04,0.09,0.05-0.01c0-0.09-0.12-0.03-0.18-0.05c-0.23,0-0.46-0.01-0.69-0.01c-0.47,0.07-0.94,0.13-1.42,0.2
		c-0.02,0.05,0.01,0.17,0.06,0.15c-0.01-0.04,0-0.09,0.02-0.03C-4.27,27.75-4.3,27.59-4.3,27.58L-4.3,27.58z"/>
	<path id="path5" fill="#151414" d="M-3.97,29.55c-0.02-0.02-0.03-0.05-0.05-0.07c0.02-0.03,0.04-0.03,0.06,0.01
		c0.02,0.05,0.02,0.03,0.01-0.01c0-0.02-0.03-0.08,0.01-0.05c0.04,0.03,0.04,0.01,0.02-0.03c-0.04-0.05,0.04,0,0.03-0.02
		c0-0.02-0.03-0.08,0-0.06c0.04,0.03,0.03-0.02,0.04-0.05c-0.01-0.06,0.04,0.01,0.04-0.03c0-0.03,0-0.07,0.03-0.03
		c0.03,0.02,0.02-0.04,0.03-0.06c0.03,0.01,0.05,0.02,0.05-0.03c-0.01-0.05,0.04,0.02,0.03-0.04c-0.01-0.04,0.05,0,0.04-0.05
		c0.01-0.01,0.06,0.05,0.06,0.01c0.01-0.02,0-0.07,0.04-0.04c0.04,0.03,0.02-0.03,0.02-0.05c-0.01-0.04,0.05,0.04,0.03-0.02
		c-0.01-0.04,0.05-0.01,0.06-0.04c0.01-0.03,0.04-0.04,0.07-0.03c0.01-0.01,0.01-0.06,0.04-0.06c0.03,0.02,0.05,0.01,0.07-0.02
		c0.02-0.01,0.06,0.03,0.05-0.02c-0.01-0.04,0.03-0.02,0.06-0.02c0-0.03,0.01-0.06,0.05-0.04c0.04,0.03,0.02-0.04,0.03-0.04
		c0.03,0.03,0.05,0.02,0.04-0.02c0-0.03,0.04-0.06,0.04-0.01c0.01,0.03,0.03-0.05,0.05-0.04c0.03,0.02,0.05,0.01,0.05-0.03
		c0-0.03,0.05-0.01,0.07-0.03c0.01-0.04,0.03-0.04,0.06-0.03c0.03,0.01,0.01-0.06,0.05-0.02c0-0.02,0-0.04,0.02-0.02
		c0-0.05,0.02-0.03,0.04,0c0.02,0,0.01-0.07,0.04-0.05c0.04,0.02,0.05,0.01,0.04-0.03c0-0.04,0.03-0.02,0.05,0
		c0.02,0,0.01-0.07,0.04-0.04c0.04,0.02,0.03-0.01,0.04-0.04c0.02-0.05,0.06,0.07,0.05-0.01c-0.01-0.04,0.04,0.02,0.06,0.02
		c0.03,0.01,0.07,0.02,0.06-0.02c0-0.04,0.02-0.04,0.05-0.02c0.04,0.02,0-0.04,0-0.06c-0.01-0.03,0.07,0.04,0.05-0.01
		c-0.01-0.02,0.06,0,0.05,0.02c-0.02,0.1-0.03,0.2-0.05,0.3c-0.39,0.19-0.79,0.39-1.18,0.58C-3.55,29.26-3.76,29.4-3.97,29.55
		L-3.97,29.55z"/>
</g>
<g id="layer1">
	<path id="path1" fill="#151414" d="M22.66,386.39c0.24-0.46,0.29-0.93,0.15-1.43c-0.01-0.63-0.24-1.19-0.57-1.72
		c-0.28-0.56-0.54-1.14-1.1-1.48c-0.5-0.42-1.06-0.8-1.27-1.45c-0.41-0.93-1.22-1.8-0.99-2.88c0.01-1.08,0.45-2.09,0.76-3.11
		c0.35-0.53,0.59-1.17,1.21-1.43c0.74-0.41,1.51-0.75,2.36-0.84c1.12-0.18,2.28-0.14,3.39,0.01c0.69,0.16,1.28,0.58,1.74,1.1
		c0.83,1.06,1.22,2.39,1.44,3.7c0.19,0.89-0.1,2.34-0.2,3.19c0.02,0.52,0.99,3.33,1.43,3.03c0.71-0.36,0.55-4.15,1.26-4.52
		c0.81-0.56,1.74-1.33,2.7-1.18c1.45,0.57,2.13,2.74,2.75,4.04c0.46,1.26,0.62,2.61,0.86,3.93c0.07,1.32,0.33,2.69-0.04,3.99
		c-0.19,0.71-0.48,1.37-0.93,1.94c-0.44,0.63-1.1,1.09-1.61,1.67c-0.34,0.32-0.78,0.58-0.78,1.1c-0.29,0.76-0.73,1.44-1.29,2.03
		c-0.14,0.69-1,0.49-1.52,0.62c-1.15,0.13-2.25,0.32-3.29-0.04c-1.01-0.26-1.95-0.28-2.95-0.08c-0.96,0.28-2.51,0.47-3.17-0.31
		c-0.37-0.44-0.05-1.28-1.11-0.22c-0.9,0.44-2.29-0.69-3.05-1.33c-0.26-0.59-0.41-1.58,0.2-2.05c0.6-0.61,1.21-1.19,1.81-1.82
		c0.91-0.39,0.09-2.79-0.57-1.47c-0.42,1.16-1.3,1.6-2.43,1.95c-1.09,0.37-2.42,0.24-3.19-0.73c-0.94-0.76-1.85-1.56-2.47-2.62
		c-0.46-0.58-0.94-1.21-0.92-1.99c-0.06-1.24,0.05-2.44,0.48-3.58c0.21-0.5,0.33-1-0.01-1.38c-0.16-0.39-0.56-0.76-0.27-1.19
		c0.28-0.45,0.74-0.86,1.24-1.06c0.47-0.14,0.89,0.02,1.21,0.39c0.54,0.53,1.03,1.06,1.59,1.54c1.03,0.37,1.9,0.64,2.93,1.03
		c0.87,0.95,1.5,2.09,2.23,3.15c0.39,0.61,0.89,1.2,1.5,1.57C22.32,386.48,22.52,386.47,22.66,386.39L22.66,386.39z"/>
</g>
<sodipodi:namedview  bordercolor="#000000" borderopacity="0.25" id="namedview1" pagecolor="#ffffff"></sodipodi:namedview>
<g id="layer8">
	<path id="path2" fill="#151414" d="M26.44,282.56c-1.64,0.53-3.2-0.47-4.63-1.14c-1.51-0.55-3.26-1.35-3.71-3.05
		c-0.6-1.71-0.84-3.55-1.74-5.14c-0.67-1.27-0.45-2.7-0.66-4.06c-0.34-1.85-1.16-3.62-1.12-5.52c0.45-1.13,0.16-3.89,1.92-3.57
		c1,0.72,0.71,2.13,0.56,3.19c-0.32,1.26-0.58,3.08,0.76,3.86c1.5,0.74,2.77-1.25,2.25-2.57c-0.22-1.53,1.29-2.94,0.49-4.44
		c-0.13-1.64,1.59-2.58,1.98-4.07c0.42-0.85,1.88-0.89,1.15,0.33c-0.22,1.46,0.52,3.05-0.35,4.41c-0.58,1.21-1.42,2.39-1.42,3.79
		c0.28,1.21,2.21,2.81,3.09,1.28c0.65-1.38,0.15-3.03,0.91-4.39c0.68-1.78,1.49-3.56,1.67-5.49c0.35-1.48,3.19-1.21,2.44,0.47
		c-0.37,1.85-2.18,3.31-1.79,5.32c0.13,1.73,0.51,3.58,1.74,4.88c1.9-0.18,0.99-2.52,1.17-3.75c0.57-1.36,1.09-2.73,0.93-4.2
		c0.45-1.25,2.07-1.59,2.43-2.9c1.39-0.84,0.8,1.69,0.55,2.37c-0.53,1.71-1,3.48-0.84,5.29c-0.16,2.92-1.32,5.66-2.36,8.34
		c-0.95,1.43-0.18,3.34-1.16,4.77c-0.81,1.44-1.26,3.03-1.87,4.55C28.38,281.98,27.44,282.55,26.44,282.56L26.44,282.56z"/>
</g>
<g id="layer6">
	<path id="path1_1_" fill="#151414" d="M19.12,455.2c-1.32-1.08-2.84-2.19-3.3-3.93c-1.11-1.93-0.89-4.35,0.06-6.29
		c1.54-3.55,3.92-6.65,6.36-9.63c0.85-0.96,2.05-1.86,3.41-1.66c1.75,0.19,3.75,0.2,5,1.55c1.24,1.11,2.36,2.51,2.84,4.09
		c0.36,1.28,0.66,3.08,0.52,4.59c-0.04,0.93,1.09,1.86,0.47,2.79c-0.97,0.16-2.16,1.09-1.07,2.06c0.62,0.64,1.61,1.53,0.89,2.47
		c-1.05,1.11-3.03,0.78-3.88,2.16c-1.7,1.12-3.72,1.8-5.76,1.77c-1.56,0.3-3.25,1.18-4.79,0.33
		C19.65,455.38,19.39,455.27,19.12,455.2z"/>
	<path id="path2_1_" fill="#151414" d="M33.89,438.31c-0.61-1.6-1.72-2.93-2.78-4.24c-0.81-0.78-1.9-1.17-2.92-1.57
		c-0.85-0.23-1.72,0-2.58,0.01c-0.51,0.02-1,0.17-1.47,0.34c-0.81,0.12-1.02-0.85-0.75-1.43c0.02-0.72,0.29-1.41,0.85-1.88
		c0.46-0.39,0.96-0.77,1.53-0.97c0.66-0.21,1.42,0.01,1.88,0.53c0.39,0.37,1.11,0.54,1.48,0.05c0.48-0.62,1.42-0.37,1.96,0.04
		c0.67,0.39,0.29,1.31,0.88,1.72c0.51,0.46,1.29-0.03,1.71,0.57c0.5,0.54,0.56,1.33,0.59,2.03c-0.03,0.56-0.39,1.14-0.17,1.7
		c0.38,0.56,0.98,1.16,0.78,1.9c0.1,0.55-0.22,1.83-0.95,1.31L33.89,438.31L33.89,438.31z"/>
</g>
<sodipodi:namedview  bordercolor="#000000" borderopacity="0.25" id="namedview1" pagecolor="#ffffff"></sodipodi:namedview>
<g id="layer16">
	<path id="path5_1_" fill="#151414" d="M1.62,214.92c0.61-0.38,1.01,0.11,0.15,0.2c0.51,0.64,1.23,0.16,1.88,0.19
		c0.67-0.04,1.14-0.79,1.82-0.47c1.24,0.14,2.16,1.21,3.41,1.33c0.7,0.17,1.47-0.16,2.12,0.03c0.54,0.41,1.19,0.64,1.83,0.82
		c-0.89,1.02-0.92,2.5-1.77,3.53c-0.58,0.64-0.29,1.08,0.53,1.13c0.83-0.01-0.64,1.25,0.57,0.86c0.58-0.15,1.36,0.11,1.81-0.34
		c0.11-0.51-0.23-1.11,0.18-1.61c0.62-1.05,1.76-1.98,1.63-3.32c-0.19-0.59,1.08-0.46,1.52-0.75c1.05-0.27,2.13-0.7,3.17-0.82
		c0.23,0.61-0.04,1.35,0.14,1.93c1.33,1.23,2.41,2.73,3.42,4.21c0.96,0.32,0.18,0.91-0.14,1.36c0.23,0.42,1.24,0.16,1.77,0.18
		c0.76,0.12,1.33-0.25,0.74-0.96c-0.35-0.67-0.32-1.49-0.98-1.98c-0.83-0.51-0.43-1.64-0.96-2.36c-0.22-0.7-1.02-1.21-0.92-2.01
		c0.45-0.24,0.48,1.02,1.03,1.21c1.11,1.18,2.16,2.41,2.95,3.82c0.59,0.51-0.02,1.11-0.17,1.63c0.69,0.13,1.48,0.04,2.13-0.14
		c0.58-0.59-0.23-1.39-0.25-2.07c-0.3-1.1-1.28-1.86-1.54-2.99c-0.3-0.67-0.81-1.16-1.33-1.65c0.08-0.86,0.64-1.67,0.49-2.57
		c0.31-0.41,1.2-0.38,1.73-0.62c1.24-0.4,2.5-0.7,3.82-0.7c1.94-0.02,3.92,0.14,5.75,0.85c2.58,0.79,5.17,1.53,7.72,2.43
		c0.72,0.19,1.47,0.6,2.18,0.65c-0.57-0.85-1.67-1.48-2.51-2.17c0.18-0.35,1.02-0.7,1.48-1.02c0.7-0.36,0.99-0.8,0.06-0.27
		c-0.83,0.5-1.8,0.67-2.77,0.63c1.22-0.97,2.7-1.52,4.06-2.26c-0.14-0.47-1.11,0.18-1.55,0.2c-1.28,0.39-2.6,0.69-3.73,1.44
		c-0.67-0.18-1.24-0.35-0.75-1.12c0.2-0.99-0.43-0.89-1.03-0.35c-0.25,0.46-1.54,0.59-1.02,0.01c0.59-0.33,0.81-0.9,0.98-1.52
		c-0.12-0.24-1.19-0.06-1.63,0.05c-0.6,0.18-0.85,1.03-1.56,0.83c0.41-0.76,1.32-1.18,1.67-2.02c0.19-0.36,1.02-1.41,0.63-1.39
		c-1.47,0.53-3.26-0.02-4.51,1.12c-0.57,0.12-0.73,1.45-1.28,0.81c-0.09-0.37,0.95-0.75,1.15-1.28c0.79-0.98,1.16-2.24,1.63-3.39
		c0.53-0.96-0.12-0.74-0.7-0.27c-1.44,0.85-3.23,0.5-4.76,1.09c-0.6,0.26-1.51,0.7-1.23,1.51c-0.13,0.36-1.57-0.09-1-0.65
		c0.61-0.42,1.24-0.96,1.23-1.77c0.22-1.55,0.56-3.07,0.9-4.59c-1.12,0.31-2.24,0.71-3.42,0.62c-1.48,0.32-3.09,0.71-4.11,1.9
		c-0.45,0.64-0.43,1.4-0.36,2.15c-0.14,0.49-1.34,1.21-0.98,0.26c0.25-0.97-0.21-1.95-0.19-2.9c0.35-0.94,0.93-1.84,1-2.85
		c-1.28,0.84-2.91,0.93-4.21,1.75c-0.97,0.37-1.72,1.15-2.45,1.86c-0.43,0.32-0.11,1.73-0.58,1.35l-0.92-3.3
		c-0.74,0.2-1.26,0.97-2.03,1.19c-0.76,0.32-1.31,0.97-1.9,1.52c0.05,0.51,0.45,1.85-0.16,0.78c-0.45-0.84-0.8,0.45-1.28,0.65
		c-0.7,0.53-1.34,1.4-1.13,2.29c0.11,0.42,1.31,1.24,0.63,1.37c-0.53,0.23-1.68,0.09-1.16,0.93c0.56,0.66,0.26,1.67,0.98,2.24
		c0.68,0.77-0.69-0.26-1.07-0.26c-0.91-0.45,0.03,1.3-0.26,1.15c-0.71,0.29-1.59,0.5-2.34,0.77c-0.63-0.42-1.51-0.58-2.07,0.05
		C3.04,213.54,1.59,213.78,1.62,214.92L1.62,214.92z"/>
	<path id="path6" fill="#151414" d="M5.81,213.17c0.09-0.19,0.2-0.37,0.24-0.58c0.14-0.03,0.3,0.17,0.41,0.02
		c0.07-0.11,0.15-0.22,0.26-0.29c0.1-0.07,0.22-0.14,0.34-0.09c0.1,0.04,0.19,0.09,0.28,0.14c0.12,0.09,0.23-0.01,0.27-0.12
		c0.1-0.1,0.13-0.32,0.3-0.27c0.18,0,0.35,0.01,0.53,0.01c0.13,0.32,0.26,0.64,0.39,0.96C7.83,213.03,6.82,213.1,5.81,213.17
		L5.81,213.17z"/>
</g>
<g id="layer4">
	<path id="path1_2_" fill="#151414" d="M24.85,341.37c-1.69,0.82-4.03,0.5-5.04-1.21c-1.42-2.06-1.19-4.72-2.21-6.96
		c-1.01-2.58-2.91-4.88-3.04-7.74c-0.31-1.1-0.8-2.13-0.47-3.31c0.17-1.14,0.55-2.24,0.67-3.39c1.12-0.15,1.63,1.34,2.81,1.4
		c1.42,1.03,1.06,2.99,1.54,4.47c0.04,1.39,0.07,3.16,1.75,3.61c0.98,0.37,2.84,1.27,2.57-0.58c-0.04-1.44-0.48-2.83-0.45-4.28
		c-0.11-2.1-0.15-4.22-0.55-6.28c-0.04-1.55,0.54-3.26,1.94-4.07c0.26-0.58,0.99-2.65,1.21-0.93c0.7,1.27,1.43,2.62,1.06,4.1
		c0.24,1.44,1.84,2.67,1.11,4.2c-0.4,1.94-0.12,4-0.86,5.86c0.28,1.08,1.66,1.6,2.4,2.44c1.46,0.58,1.41-1.52,1.17-2.43
		c-0.22-1.24-0.54-2.64,0.22-3.76c0.33-1.63,1.83-2.66,3.26-3.28c0.28-0.84,2.39-1.77,1.46-0.14c-0.02,1.36,1.09,2.57,0.33,3.94
		c-0.06,1.4,0.67,2.96-0.27,4.21c-1.13,2.01-1.25,4.57-3,6.23c-1.68,1.77-0.89,4.59-2.47,6.4c-0.98,1.19-2.54,1.54-4.03,1.51
		C25.6,341.35,25.21,341.56,24.85,341.37L24.85,341.37z"/>
</g>
<g id="layer10">
	<path id="path2_2_" fill="#151414" d="M4.34,90.96c-1.24,2.14-3.15,3.76-5.02,5.33c-0.84,0.28-1.93-0.68-0.98-1.32
		c0.51-0.73,1.56-0.94,2.01-1.54c0.19-0.86,1.59-0.98,0.93-1.91c-0.49-0.8-1.66-0.96-1.96,0.07c-0.85,0.83-2.05,1.13-3.07,1.72
		c-0.96-0.12-0.81-1.41-0.56-2.06c1.02-1.3,2.5-2.17,3.48-3.51c0.9-1.22,0.96,0.65,1.79,0.12c1.18-2.06,3.91-1.95,5.96-1.57
		c1.51,0.94,2.69,2.73,4.59,2.8c2.2-0.32,4.4-0.7,6.6-1.05c2.23-0.13,4.47-0.1,6.69,0c2.1,0.43,4.22,0.68,6.28,1.29
		c2.49,0.68,5.04,1.09,7.59,1.44c3.56,0.23,7.06-0.64,10.58-0.9c3-0.03,6.08,0.18,8.88,1.37c3.52,1,7.19,2.36,9.57,5.3
		c0.92,1.1-1.04,0.37-1.42-0.24c-2.53-1.92-5.7-2.55-8.6-3.71c-1.6-0.41-3.2-0.74-4.87-0.53c-2-0.25-4-0.15-5.92,0.48
		c-4.41,1.19-8.8,3.28-13.48,2.7c-1.52-0.22-3.29,0.92-3.62,2.42c-0.1,1.11-0.05,2.47,0.77,3.28c1,1.12,2.95,1.26,3.26,2.93
		c-0.02,0.93,0.56,1.79,0.99,2.4c0.04,0.95-0.46,2.01-0.88,3.06c-0.61,1.04-1.93,0.3-2.87,0.27c0.57-0.7,2.04-0.46,2.07-1.64
		c0.27-1.16,0.19-2.4-0.57-3.36c-0.56-1.12-1.45-2.02-2.66-2.41c-0.8-0.24-1.79-1.05-2.56-0.56c-0.62,0.77-0.46,1.62-1.07,2.31
		c-0.1,0.73-0.5,1.73-1.29,1.84c-0.55-0.81-0.69,0.25-1.6,0.69c-0.25-0.5,0.45-1.62,1.06-2.07c1.26-0.29-0.23-1.98,1.05-2.06
		c0.84-0.33,1.68-1.58,0.67-2.21c-0.69-1.05-2.02-1.18-3.15-0.88c-0.84,0.62-2.09,0.64-2.75-0.25c-1.48-0.93-3.4-0.31-4.98-1.07
		c-0.99-0.64-1.67,0.15-2.36,0.76c-0.84,0.46-1.05,1.49-1.07,2.37c-0.51,1.06-0.79,0.69-0.57-0.49c-1.52,0.89,0.04-0.29-0.21-0.71
		c-0.98,1.07-0.87-0.34,0.19-0.77c0.63-0.59,1.69-1.06,1.93-1.87c-0.4-0.74-1.75-0.31-2.25-1.18c-0.95-0.5-1.24-1.59-1.23-2.59
		c-1.36-0.77-2.68-1.78-3.75-2.82C5.39,90.56,4.53,90.14,4.34,90.96L4.34,90.96z"/>
	<path id="path3_2_" fill="#151414" d="M-3.53,93.19c0.11,0.09,0.3,0.38,0.35,0.35c-0.05-0.14-0.22-0.42-0.19-0.47
		c0.14,0.09,0.36,0.36,0.46,0.34c-0.05-0.15-0.23-0.43-0.2-0.49c0.12,0.1,0.28,0.39,0.38,0.37c-0.01-0.14-0.14-0.48-0.05-0.49
		c0.14,0.13,0.38,0.45,0.46,0.47c-0.02-0.17-0.19-0.53-0.12-0.59c0.11,0.12,0.32,0.47,0.38,0.45c-0.04-0.19-0.17-0.53-0.16-0.64
		c0.17,0.17,0.33,0.34,0.5,0.5c-0.07-0.25-0.15-0.5-0.22-0.74c0.09,0.1,0.19,0.2,0.28,0.31c0.01-0.14,0.02-0.28,0.02-0.42
		c0.11,0.13,0.2,0.5,0.32,0.47c0.05-0.17-0.03-0.6,0.12-0.59c0.07,0.09,0.35,0.52,0.26,0.17c-0.01-0.15-0.16-0.59,0.05-0.28
		c0.09,0.12,0.33,0.39,0.18,0.09c-0.06-0.13-0.18-0.45,0-0.19c0.08,0.12,0.27,0.31,0.13,0.05c-0.1-0.23-0.24-0.47-0.06-0.71
		c0.08-0.17,0.05-0.2-0.04-0.05c-0.08,0.11-0.2,0.21-0.02,0.31c0.08,0.09,0.38,0.5,0.29,0.18c-0.14-0.26-0.13-0.68,0.23-0.74
		c0.29,0,0.58,0,0.87-0.02c0.24,0.01,0.38,0.24,0.57,0.35c0.15,0.15,0.41,0.26,0.5,0.44c-0.02,0.24,0.11,0.62-0.02,0.78
		c-0.3-0.14-0.6-0.28-0.9-0.42c0.09,0.18,0.4,0.41,0.36,0.56c-0.13,0.01-0.58-0.2-0.51,0c0.08,0.12,0.16,0.25,0.24,0.37
		c-0.28-0.03-0.56-0.08-0.85-0.1c0.18,0.07,0.38,0.1,0.56,0.19c-0.14,0.03-0.71-0.07-0.38,0.15c0.08,0.07,0.3,0.22,0.07,0.14
		c-0.12-0.04-0.48-0.13-0.23,0.06c0.09,0.09,0.43,0.41,0.13,0.22C0.1,93.5-0.3,93.22-0.15,93.54c0.02,0.09,0.22,0.6,0.06,0.36
		c-0.12-0.17-0.24-0.33-0.36-0.5c0.07,0.28,0.13,0.56,0.2,0.84c-0.15-0.18-0.34-0.55-0.47-0.61c0.07,0.28,0.14,0.56,0.21,0.84
		c-0.23-0.2-0.41-0.46-0.67-0.63c0.08,0.26,0.17,0.52,0.25,0.79c-0.22-0.13-0.4-0.35-0.64-0.44c0.07,0.21,0.29,0.59,0.26,0.68
		c-0.21-0.13-0.39-0.33-0.62-0.42c0.1,0.22,0.37,0.68,0.36,0.74c-0.2-0.22-0.4-0.43-0.6-0.65c0.11,0.24,0.36,0.72,0.38,0.81
		c-0.17-0.23-0.32-0.47-0.51-0.69c0.15,0.32,0.3,0.64,0.45,0.96c0.35,0.13,0.66-0.15,0.88-0.38c0.88-0.76,1.76-1.53,2.64-2.3
		c0.17-0.48,0.34-0.96,0.51-1.44c-0.28-0.23-0.53-0.53-0.89-0.65c-0.3-0.15-0.6-0.3-0.91-0.44c-0.67,0.08-1.33,0.18-2,0.27
		C-2.25,91.52-2.89,92.35-3.53,93.19L-3.53,93.19z"/>
</g>
<g id="layer2">
	<path id="path1_3_" fill="#231315" d="M44.49,125.32c0.64-0.26,1.71,0.49,1.09,1.13c-0.51,1.13-1.97,0.37-2.86,0.86
		c-1.4,0.55-2.18,1.98-2.62,3.34c-0.85,3.05-0.1,6.23-0.21,9.34c0.04,1.72,0.23,3.47-0.01,5.17c-0.42,1.74-1.28,3.32-2.32,4.76
		c-0.22,1.03,0.67,2.18-0.31,3.03c-0.73,0.84-0.02,1.97-0.31,2.95c-0.26,1.52-1.51,2.76-1.32,4.38c0.05,1.76-0.19,3.55-0.06,5.29
		c0.49,0.93-0.71,0.91-1.3,0.7c-0.68,0.02-1.59-0.24-1.3-1.11c0.5-1.32,0.14-2.8,0.2-4.18c-0.13-0.89,0.19-1.89-0.26-2.69
		c-0.98,0.17-0.64,1.42-0.88,2.14c-0.23,2.09-0.93,4.28,0.09,6.27c-0.41,0.86-1.4,0.2-2.08,0.42c-0.95-0.01-0.98-0.99-0.82-1.7
		c0.11-2.18,0-4.37-0.12-6.54c-0.51-0.97-0.75,0.58-0.73,1.04c-0.37,1.16-1.05,2.38-0.74,3.61c0.14,0.72,1.32,1.11,1.01,1.83
		c-0.59,0.32-1.51,0.02-2.23,0.11c-0.77,0.14-1.61-0.19-1.29-1.1c0.09-1.16,0.28-2.28,0.17-3.45c-0.21-0.68,0.45-1.83-0.29-2.12
		c-0.65-0.12-1.63-0.49-2.16-0.12c-0.51,0.6-0.22,1.63-0.99,2.11c-1.03,1.13-2.44,1.98-3.14,3.38c-0.03,0.78,1.27,0.82,1.14,1.69
		c-1.12,0.6-2.51,0.51-3.63-0.06c-0.24-1.53,0.9-2.83,1.12-4.31c0.31-1.07,0.91-2.1,1.8-2.78c-0.07-0.65-0.01-1.74-0.67-1.98
		c-4.21,0.1-8.2,1.62-12.19,2.81c-1.86,0.37-3.78,0.95-5.69,0.56c0.02-0.73,1.35-0.58,1.95-0.76c4.04-1.51,7.55-4.08,11.27-6.22
		c1.9-1.12,3.77-2.29,5.82-3.11c2.41-1.37,4.74-2.92,7.44-3.66c1.33-0.43,2.69-0.87,4.08-0.97c1.2,0.16,2.64,0.7,3.74-0.04
		c1.21-1.62,1.04-3.77,1.5-5.66c0.61-2.79,0.21-5.7,0.85-8.48c0.43-1.67,1.07-3.36,2.09-4.75c0.71-0.9,1.62-1.59,2.6-2.14
		c0.42-0.54,1.09-1.54,1.81-0.81C44.13,123.99,44.03,124.84,44.49,125.32L44.49,125.32z"/>
</g>
</svg>
