<?xml version="1.0" encoding="UTF-8" standalone="no"?>
<!-- Created with Inkscape (http://www.inkscape.org/) -->

<svg
   width="210mm"
   height="297mm"
   viewBox="0 0 210 297"
   version="1.1"
   id="svg1"
   xml:space="preserve"
   xmlns="http://www.w3.org/2000/svg"
   xmlns:svg="http://www.w3.org/2000/svg"><defs
     id="defs1" /><g
     id="layer2"><path
       style="opacity:1;fill:#999999;stroke-width:0.499999"
       d="m 148.44972,87.439338 c 0.87119,-0.359694 2.3274,0.668623 1.49196,1.545238 -0.69804,1.542015 -2.68719,0.507277 -3.90473,1.177369 -1.90555,0.749767 -2.97851,2.698889 -3.5817,4.56214 -1.1553,4.159056 -0.13198,8.506225 -0.29302,12.750105 0.0611,2.34179 0.3119,4.73828 -0.0176,7.05067 -0.57636,2.37046 -1.75189,4.52859 -3.1617,6.50127 -0.29519,1.4064 0.91934,2.97225 -0.42931,4.13329 -0.99694,1.14255 -0.0213,2.68621 -0.41975,4.02855 -0.35337,2.07323 -2.0666,3.77199 -1.79874,5.98471 0.0699,2.40707 -0.25773,4.84335 -0.0789,7.22493 0.67268,1.27584 -0.97061,1.23555 -1.77231,0.95312 -0.93419,0.0232 -2.16758,-0.32598 -1.77123,-1.51684 0.68,-1.80359 0.18903,-3.81641 0.2692,-5.709 -0.17356,-1.21699 0.2564,-2.57511 -0.35677,-3.6755 -1.34126,0.23117 -0.87835,1.93208 -1.20061,2.91544 -0.31236,2.84699 -1.27289,5.84082 0.12052,8.56365 -0.56523,1.17556 -1.91597,0.27792 -2.83838,0.57772 -1.30099,-0.0144 -1.33633,-1.35456 -1.12135,-2.32459 0.14671,-2.9706 -0.003,-5.95829 -0.15969,-8.92845 -0.69586,-1.3228 -1.02888,0.797 -0.9963,1.42303 -0.50252,1.57679 -1.42663,3.24681 -1.01321,4.93197 0.18889,0.98612 1.79875,1.51095 1.37343,2.5016 -0.80598,0.43417 -2.06662,0.0305 -3.04463,0.14758 -1.04834,0.18859 -2.19745,-0.25624 -1.76321,-1.50477 0.12156,-1.58876 0.37941,-3.10685 0.23624,-4.71347 -0.28254,-0.92158 0.617,-2.50031 -0.39704,-2.90018 -0.88985,-0.17023 -2.22599,-0.66773 -2.94741,-0.16748 -0.69732,0.81705 -0.3044,2.23019 -1.35437,2.87879 -1.41226,1.54719 -3.3298,2.70455 -4.28545,4.61199 -0.0459,1.05809 1.7326,1.11603 1.55733,2.31089 -1.53408,0.81983 -3.43143,0.69954 -4.94833,-0.0754 -0.33036,-2.0902 1.23168,-3.85913 1.53222,-5.87771 0.4248,-1.45709 1.24469,-2.86965 2.46161,-3.79288 -0.0904,-0.88385 -0.009,-2.38016 -0.92002,-2.70055 -5.74802,0.13646 -11.19006,2.20966 -16.637077,3.8417 -2.541159,0.50997 -5.158083,1.30006 -7.762257,0.76781 0.02093,-0.99184 1.840444,-0.79203 2.656183,-1.04231 5.518922,-2.05946 10.300571,-5.57239 15.376621,-8.48939 2.58766,-1.52841 5.14068,-3.1239 7.93815,-4.24375 3.28423,-1.86595 6.47169,-3.99166 10.15488,-5.00061 1.80878,-0.58126 3.67708,-1.18173 5.57072,-1.31866 1.64077,0.21248 3.60325,0.95552 5.09903,-0.0502 1.64905,-2.214 1.42114,-5.14162 2.04202,-7.72018 0.83098,-3.80358 0.28544,-7.784708 1.15666,-11.570227 0.59149,-2.283174 1.45816,-4.580006 2.8562,-6.481473 0.96911,-1.223261 2.20933,-2.176108 3.55054,-2.919679 0.57323,-0.735463 1.4896,-2.098513 2.46608,-1.105992 0.58137,0.627208 0.43685,1.79302 1.06552,2.445719 z"
       id="path1" /></g></svg>
