<?xml version="1.0" encoding="UTF-8" standalone="no"?>
<!-- Created with Inkscape (http://www.inkscape.org/) -->

<svg
   width="210mm"
   height="297mm"
   viewBox="0 0 210 297"
   version="1.1"
   id="svg1"
   xml:space="preserve"
   xmlns="http://www.w3.org/2000/svg"
   xmlns:svg="http://www.w3.org/2000/svg"><defs
     id="defs1" /><g
     id="g1"><g
       id="layer16"
       transform="matrix(0.56746536,0,0,0.56746536,59.87156,71.104425)"
       style="fill:#999999;stroke:none"><path
         style="opacity:1;fill:#999999;fill-opacity:1;stroke:none;stroke-width:0.174673;stroke-opacity:1"
         d="m 6.4801398,90.346093 c 1.6863177,-1.064912 2.8160865,0.295707 0.428725,0.565273 1.4031554,1.79107 3.4117252,0.4447 5.2106592,0.531976 1.8722,-0.100248 3.178807,-2.208715 5.054614,-1.315721 3.43297,0.400688 5.986146,3.378243 9.482597,3.716698 1.935988,0.471617 4.086212,-0.451821 5.900964,0.08724 1.489287,1.154087 3.293687,1.791031 5.087457,2.299545 -2.466655,2.847656 -2.56866,6.999776 -4.928631,9.878686 -1.599214,1.79614 -0.810184,3.03409 1.461161,3.15423 2.301051,-0.0259 -1.783707,3.50239 1.583807,2.403 1.621375,-0.42371 3.769131,0.29677 5.016654,-0.93959 0.297478,-1.42546 -0.626162,-3.12043 0.510252,-4.51217 1.714735,-2.93099 4.88553,-5.54112 4.535512,-9.285941 -0.530746,-1.65773 3.012459,-1.297652 4.217403,-2.095699 2.919716,-0.745107 5.904484,-1.946516 8.814033,-2.305733 0.630618,1.714542 -0.10862,3.780307 0.399885,5.410009 3.704425,3.456444 6.684404,7.641584 9.499639,11.794784 2.658807,0.9098 0.488065,2.54903 -0.398915,3.81688 0.640712,1.17061 3.430182,0.46003 4.91034,0.4976 2.102437,0.32645 3.684255,-0.69983 2.063502,-2.69571 -0.983126,-1.86439 -0.897083,-4.18174 -2.727086,-5.54479 -2.310413,-1.4397 -1.204874,-4.57839 -2.66207,-6.612171 -0.624209,-1.971328 -2.844336,-3.396238 -2.548586,-5.623266 1.255121,-0.677798 1.338014,2.849086 2.85003,3.380136 3.074292,3.297791 5.999769,6.736361 8.201692,10.698501 1.650233,1.43139 -0.045,3.10374 -0.465487,4.57375 1.919985,0.36171 4.117147,0.11682 5.90874,-0.38021 1.610362,-1.65551 -0.63456,-3.88072 -0.700838,-5.80956 -0.831397,-3.0773 -3.54654,-5.21092 -4.287337,-8.365198 -0.836048,-1.866837 -2.237475,-3.25624 -3.690787,-4.629395 0.227144,-2.394922 1.770254,-4.663228 1.358909,-7.200299 0.847965,-1.14647 3.334875,-1.064733 4.80339,-1.746172 3.448703,-1.1314 6.951045,-1.952492 10.59603,-1.948355 5.395616,-0.05295 10.896552,0.395095 15.972552,2.372611 7.16413,2.202401 14.36476,4.273163 21.42905,6.798334 2.01086,0.524444 4.07741,1.684455 6.05374,1.814711 -1.57369,-2.384829 -4.63605,-4.154204 -6.96947,-6.087576 0.50778,-0.9826 2.84196,-1.969428 4.12245,-2.862515 1.94008,-1.001521 2.7594,-2.248365 0.17784,-0.761798 -2.31795,1.391216 -5.00582,1.881411 -7.68042,1.774399 3.39325,-2.72304 7.50286,-4.254793 11.27877,-6.317211 -0.39018,-1.309754 -3.07991,0.514374 -4.31428,0.556564 -3.55832,1.082096 -7.23007,1.91828 -10.3613,4.031723 -1.84742,-0.515305 -3.43763,-0.991336 -2.07768,-3.125355 0.545,-2.775501 -1.19673,-2.485909 -2.86161,-0.98731 -0.70814,1.274561 -4.28771,1.658685 -2.83505,0.04143 1.62654,-0.914176 2.26149,-2.506193 2.71156,-4.244776 -0.329,-0.679879 -3.30374,-0.159219 -4.53481,0.130761 -1.65922,0.502162 -2.35077,2.896738 -4.31949,2.333518 1.15155,-2.138126 3.66087,-3.303915 4.64425,-5.645972 0.53083,-1.003534 2.82108,-3.937878 1.75774,-3.904817 -4.08505,1.473595 -9.06663,-0.06699 -12.53029,3.12496 -1.5858,0.344921 -2.039086,4.052017 -3.551761,2.256726 -0.261262,-1.025735 2.640411,-2.088581 3.207181,-3.573302 2.18478,-2.743326 3.22733,-6.258391 4.53422,-9.488264 1.48174,-2.675043 -0.33184,-2.060384 -1.94974,-0.755057 -3.998364,2.374976 -8.969748,1.389551 -13.230967,3.062337 -1.67439,0.725286 -4.199767,1.971407 -3.426465,4.217384 -0.367867,1.004265 -4.352632,-0.250736 -2.774257,-1.823924 1.68078,-1.163557 3.453105,-2.679079 3.421012,-4.961233 0.604493,-4.328868 1.559685,-8.596938 2.486243,-12.864686 -3.123765,0.86184 -6.207503,1.9944 -9.49791,1.728921 -4.101945,0.884742 -8.590358,1.980543 -11.403271,5.322233 -1.239182,1.799905 -1.182922,3.922726 -0.996781,6.015492 -0.399343,1.364485 -3.72145,3.385731 -2.73268,0.722484 0.70572,-2.712453 -0.585105,-5.454364 -0.513866,-8.109397 0.983663,-2.623945 2.590723,-5.13907 2.784839,-7.973876 -3.558824,2.338831 -8.075183,2.616536 -11.704623,4.901282 -2.706652,1.047941 -4.787389,3.21158 -6.800058,5.203281 -1.201039,0.884347 -0.305682,4.850891 -1.604972,3.787452 l -2.546817,-9.237233 c -2.045329,0.556431 -3.493108,2.714926 -5.649233,3.321464 -2.106314,0.899643 -3.629369,2.713316 -5.266768,4.259186 0.143713,1.431899 1.250551,5.182025 -0.444971,2.186912 -1.260145,-2.347189 -2.226674,1.261016 -3.564319,1.823447 -1.936579,1.4711 -3.712858,3.908987 -3.139607,6.403705 0.316451,1.182465 3.645704,3.46324 1.74339,3.836857 -1.479255,0.630132 -4.66911,0.242485 -3.234951,2.606051 1.557331,1.849559 0.723586,4.667384 2.708653,6.263526 1.883738,2.147889 -1.909408,-0.736037 -2.961016,-0.736909 -2.524715,-1.267401 0.0959,3.639064 -0.712949,3.211042 -1.968079,0.823177 -4.426051,1.405393 -6.487909,2.16784 -1.74215,-1.188344 -4.192006,-1.623117 -5.738322,0.132996 -2.165261,1.398887 -6.1660406,2.048524 -6.1011352,5.253254 z"
         id="path5" /><path
         style="opacity:1;fill:#999999;fill-opacity:1;stroke:none;stroke-width:0.189902;stroke-opacity:1"
         d="m 18.646869,85.634239 c 0.259318,-0.602761 0.578018,-1.188014 0.694603,-1.853562 0.391954,-0.104881 0.849732,0.536695 1.166023,0.06277 0.198788,-0.351252 0.418043,-0.693019 0.730901,-0.927872 0.276319,-0.227702 0.634728,-0.453806 0.979686,-0.281931 0.279195,0.122243 0.538821,0.301104 0.810029,0.43815 0.333688,0.305234 0.659329,-0.03143 0.760254,-0.400521 0.272022,-0.325797 0.368799,-1.032281 0.868026,-0.86449 0.506536,0.01459 1.013072,0.02923 1.519612,0.04391 0.367668,1.026955 0.735328,2.053904 1.102997,3.080861 -2.877377,0.234244 -5.754759,0.468428 -8.632131,0.702695 z"
         id="path6" /></g></g></svg>
